<mxfile host="app.diagrams.net" modified="2023-05-14T15:18:23.039Z" agent="Mozilla/5.0 (Macintosh; Intel Mac OS X 10_15_7) AppleWebKit/605.1.15 (KHTML, like Gecko) Version/15.1 Safari/605.1.15" etag="2qFSlCWsBk7-H8AuOF0h" version="21.2.9" type="github">
  <diagram name="Page-1" id="Wcg25NUYyIhEHkuAltaz">
    <mxGraphModel dx="722" dy="419" grid="1" gridSize="10" guides="1" tooltips="1" connect="1" arrows="1" fold="1" page="1" pageScale="1" pageWidth="827" pageHeight="1169" math="0" shadow="0">
      <root>
        <mxCell id="0" />
        <mxCell id="1" parent="0" />
        <mxCell id="GeScbsxpcdH6lsZWkw52-4" value="" style="edgeStyle=orthogonalEdgeStyle;rounded=0;orthogonalLoop=1;jettySize=auto;html=1;" edge="1" parent="1" source="GeScbsxpcdH6lsZWkw52-1" target="GeScbsxpcdH6lsZWkw52-3">
          <mxGeometry relative="1" as="geometry" />
        </mxCell>
        <mxCell id="GeScbsxpcdH6lsZWkw52-1" value="Administrateur&amp;nbsp;" style="shape=umlActor;verticalLabelPosition=bottom;verticalAlign=top;html=1;outlineConnect=0;" vertex="1" parent="1">
          <mxGeometry x="100" y="110" width="30" height="60" as="geometry" />
        </mxCell>
        <mxCell id="GeScbsxpcdH6lsZWkw52-3" value="utilisateur" style="shape=umlActor;verticalLabelPosition=bottom;verticalAlign=top;html=1;outlineConnect=0;" vertex="1" parent="1">
          <mxGeometry x="100" y="260" width="30" height="60" as="geometry" />
        </mxCell>
        <mxCell id="GeScbsxpcdH6lsZWkw52-11" value="" style="rounded=0;whiteSpace=wrap;html=1;" vertex="1" parent="1">
          <mxGeometry x="200" y="20" width="450" height="430" as="geometry" />
        </mxCell>
        <mxCell id="GeScbsxpcdH6lsZWkw52-12" value="saisir les paramètres de simulation" style="ellipse;whiteSpace=wrap;html=1;" vertex="1" parent="1">
          <mxGeometry x="460" y="60" width="150" height="40" as="geometry" />
        </mxCell>
        <mxCell id="GeScbsxpcdH6lsZWkw52-13" value="soumettre la &amp;nbsp;formulaire" style="ellipse;whiteSpace=wrap;html=1;" vertex="1" parent="1">
          <mxGeometry x="260" y="100" width="120" height="40" as="geometry" />
        </mxCell>
        <mxCell id="GeScbsxpcdH6lsZWkw52-14" value="" style="endArrow=classic;html=1;rounded=0;entryX=0;entryY=0.5;entryDx=0;entryDy=0;" edge="1" parent="1" source="GeScbsxpcdH6lsZWkw52-1" target="GeScbsxpcdH6lsZWkw52-13">
          <mxGeometry width="50" height="50" relative="1" as="geometry">
            <mxPoint x="350" y="230" as="sourcePoint" />
            <mxPoint x="400" y="180" as="targetPoint" />
          </mxGeometry>
        </mxCell>
        <mxCell id="GeScbsxpcdH6lsZWkw52-15" value="include" style="endArrow=block;endSize=16;endFill=0;html=1;rounded=0;entryX=0;entryY=0.5;entryDx=0;entryDy=0;" edge="1" parent="1" target="GeScbsxpcdH6lsZWkw52-12">
          <mxGeometry width="160" relative="1" as="geometry">
            <mxPoint x="380" y="119.5" as="sourcePoint" />
            <mxPoint x="540" y="119.5" as="targetPoint" />
          </mxGeometry>
        </mxCell>
        <mxCell id="GeScbsxpcdH6lsZWkw52-16" value="visualiser la taille des données" style="ellipse;whiteSpace=wrap;html=1;align=center;" vertex="1" parent="1">
          <mxGeometry x="500" y="150" width="120" height="40" as="geometry" />
        </mxCell>
        <mxCell id="GeScbsxpcdH6lsZWkw52-17" value="visualiser l&#39;allocation des ressources radio" style="ellipse;whiteSpace=wrap;html=1;align=center;" vertex="1" parent="1">
          <mxGeometry x="245" y="190" width="150" height="50" as="geometry" />
        </mxCell>
        <mxCell id="GeScbsxpcdH6lsZWkw52-18" value="" style="endArrow=classic;html=1;rounded=0;entryX=0;entryY=0.5;entryDx=0;entryDy=0;" edge="1" parent="1" source="GeScbsxpcdH6lsZWkw52-1" target="GeScbsxpcdH6lsZWkw52-17">
          <mxGeometry width="50" height="50" relative="1" as="geometry">
            <mxPoint x="140" y="148" as="sourcePoint" />
            <mxPoint x="270" y="130" as="targetPoint" />
          </mxGeometry>
        </mxCell>
        <mxCell id="GeScbsxpcdH6lsZWkw52-19" value="include" style="endArrow=block;endSize=16;endFill=0;html=1;rounded=0;" edge="1" parent="1" source="GeScbsxpcdH6lsZWkw52-17" target="GeScbsxpcdH6lsZWkw52-13">
          <mxGeometry width="160" relative="1" as="geometry">
            <mxPoint x="390" y="129.5" as="sourcePoint" />
            <mxPoint x="470" y="90" as="targetPoint" />
          </mxGeometry>
        </mxCell>
        <mxCell id="GeScbsxpcdH6lsZWkw52-20" value="visualiser le schéma de codage" style="ellipse;whiteSpace=wrap;html=1;align=center;" vertex="1" parent="1">
          <mxGeometry x="500" y="195" width="120" height="40" as="geometry" />
        </mxCell>
        <mxCell id="GeScbsxpcdH6lsZWkw52-21" value="visualiser les sous-porteuse" style="ellipse;whiteSpace=wrap;html=1;align=center;" vertex="1" parent="1">
          <mxGeometry x="500" y="240" width="120" height="40" as="geometry" />
        </mxCell>
        <mxCell id="GeScbsxpcdH6lsZWkw52-22" value="" style="endArrow=block;endSize=16;endFill=0;html=1;rounded=0;entryX=0;entryY=0.5;entryDx=0;entryDy=0;" edge="1" parent="1" target="GeScbsxpcdH6lsZWkw52-20">
          <mxGeometry width="160" relative="1" as="geometry">
            <mxPoint x="395" y="214.5" as="sourcePoint" />
            <mxPoint x="555" y="214.5" as="targetPoint" />
            <Array as="points">
              <mxPoint x="450" y="215" />
            </Array>
          </mxGeometry>
        </mxCell>
        <mxCell id="GeScbsxpcdH6lsZWkw52-23" value="" style="endArrow=block;endSize=16;endFill=0;html=1;rounded=0;entryX=0;entryY=0.5;entryDx=0;entryDy=0;" edge="1" parent="1" target="GeScbsxpcdH6lsZWkw52-21">
          <mxGeometry width="160" relative="1" as="geometry">
            <mxPoint x="450" y="210" as="sourcePoint" />
            <mxPoint x="510" y="225" as="targetPoint" />
            <Array as="points">
              <mxPoint x="450" y="260" />
            </Array>
          </mxGeometry>
        </mxCell>
        <mxCell id="GeScbsxpcdH6lsZWkw52-24" value="" style="endArrow=block;endSize=16;endFill=0;html=1;rounded=0;entryX=0;entryY=0.5;entryDx=0;entryDy=0;" edge="1" parent="1">
          <mxGeometry width="160" relative="1" as="geometry">
            <mxPoint x="450" y="220" as="sourcePoint" />
            <mxPoint x="500" y="170" as="targetPoint" />
            <Array as="points">
              <mxPoint x="450" y="170" />
            </Array>
          </mxGeometry>
        </mxCell>
        <mxCell id="GeScbsxpcdH6lsZWkw52-25" value="extends" style="endArrow=block;endSize=16;endFill=0;html=1;rounded=0;exitX=0.5;exitY=0;exitDx=0;exitDy=0;entryX=0.3;entryY=1;entryDx=0;entryDy=0;entryPerimeter=0;" edge="1" parent="1" source="GeScbsxpcdH6lsZWkw52-26" target="GeScbsxpcdH6lsZWkw52-17">
          <mxGeometry width="160" relative="1" as="geometry">
            <mxPoint x="300" y="349.5" as="sourcePoint" />
            <mxPoint x="290" y="250" as="targetPoint" />
          </mxGeometry>
        </mxCell>
        <mxCell id="GeScbsxpcdH6lsZWkw52-26" value="exporter la simulation en format excel" style="ellipse;whiteSpace=wrap;html=1;align=center;" vertex="1" parent="1">
          <mxGeometry x="210" y="320" width="150" height="40" as="geometry" />
        </mxCell>
        <mxCell id="GeScbsxpcdH6lsZWkw52-27" value="enregistrer dans l&#39;historique" style="ellipse;whiteSpace=wrap;html=1;align=center;" vertex="1" parent="1">
          <mxGeometry x="280" y="370" width="150" height="40" as="geometry" />
        </mxCell>
        <mxCell id="GeScbsxpcdH6lsZWkw52-28" value="extends" style="endArrow=block;endSize=16;endFill=0;html=1;rounded=0;exitX=0.607;exitY=-0.075;exitDx=0;exitDy=0;entryX=1;entryY=1;entryDx=0;entryDy=0;exitPerimeter=0;" edge="1" parent="1" source="GeScbsxpcdH6lsZWkw52-27" target="GeScbsxpcdH6lsZWkw52-17">
          <mxGeometry width="160" relative="1" as="geometry">
            <mxPoint x="325" y="330" as="sourcePoint" />
            <mxPoint x="322" y="249" as="targetPoint" />
            <Array as="points" />
          </mxGeometry>
        </mxCell>
      </root>
    </mxGraphModel>
  </diagram>
</mxfile>
